# xmcd
#
# Track frame offsets:
#	150
#	14498
#	34186
#	48355
#	64357
#	84541
#	104578
#	121140
#	138113
#	155331
#
# Disc length: 2343 seconds
#
# Revision: 0
# Processed by: cddbd v1.5.2PL0 Copyright (c) Steve Scherf et al.
# Submitted via: EZCDAudioConverter 3.0.7.1
#
DISCID=8109250a
DTITLE=Macy Gray - Talking Book
DYEAR=1900
DGENRE=
TTITLE0=You are the Sunshine of My Life
TTITLE1=Maybe Your Baby
TTITLE2=You and I (We Can Conquer the World)
TTITLE3=Tuesday Heartbreak
TTITLE4=You've Got It Bad Girl
TTITLE5=Superstition
TTITLE6=Big Brother
TTITLE7=Blame It on the Sun
TTITLE8=Lookin' For Another Pure Love
TTITLE9=I Believe (When I Fall in Love It Will Be Forever)
EXTD=
EXTT0=
EXTT1=
EXTT2=
EXTT3=
EXTT4=
EXTT5=
EXTT6=
EXTT7=
EXTT8=
EXTT9=
PLAYORDER=
